<?xml version="1.0" standalone="no"?>
<!DOCTYPE svg PUBLIC "-//W3C//DTD SVG 20010904//EN"
 "http://www.w3.org/TR/2001/REC-SVG-20010904/DTD/svg10.dtd">
<svg version="1.0" xmlns="http://www.w3.org/2000/svg"
 width="635.000000pt" height="635.000000pt" viewBox="0 0 635.000000 635.000000"
 preserveAspectRatio="xMidYMid meet">

<g transform="translate(0.000000,635.000000) scale(0.100000,-0.100000)"
fill="#000000" stroke="none">
<path d="M890 6286 c-126 -28 -205 -102 -288 -271 -140 -286 -186 -798 -112
-1245 5 -30 16 -98 24 -150 8 -52 19 -125 25 -161 14 -88 14 -294 -1 -344 -6
-22 -12 -88 -12 -146 -1 -96 1 -110 27 -161 52 -103 180 -237 357 -375 66 -52
241 -164 273 -176 21 -8 21 -23 1 -101 -11 -39 -17 -105 -18 -186 l-1 -125 63
-185 c60 -176 63 -187 53 -235 -22 -106 -26 -155 -25 -310 1 -224 12 -282 99
-490 6 -16 21 -55 33 -85 40 -105 173 -445 181 -465 20 -44 20 -61 9 -180 -24
-261 31 -418 204 -581 129 -121 317 -185 479 -163 171 24 246 69 448 267 133
131 320 292 411 355 77 53 101 67 118 67 22 0 158 -93 270 -183 43 -34 154
-136 248 -227 229 -221 310 -267 486 -278 176 -10 325 47 461 177 113 108 164
206 193 368 13 74 13 96 -1 203 l-16 119 76 193 c42 106 86 220 99 253 23 57
88 232 106 285 23 65 40 154 50 250 9 99 2 232 -26 441 -5 37 1 66 36 165 45
128 51 145 76 244 14 56 14 80 5 170 -7 58 -16 119 -21 135 -4 17 -11 48 -14
70 l-6 41 82 58 c224 162 426 367 473 479 27 66 35 122 25 174 -6 26 -17 108
-24 181 -11 112 -11 155 0 278 8 80 16 149 18 153 2 3 11 51 20 106 9 55 22
134 29 175 19 118 16 569 -6 702 -59 366 -177 606 -339 689 -59 30 -172 37
-258 15 -151 -39 -326 -153 -504 -331 -87 -86 -222 -243 -276 -321 -170 -245
-270 -417 -414 -709 -105 -213 -146 -302 -167 -358 -20 -58 -28 -61 -111 -44
-153 32 -413 57 -583 57 -102 -1 -389 -23 -505 -40 -56 -8 -144 -26 -227 -47
-17 -4 -24 2 -38 34 -34 77 -66 143 -179 373 -151 307 -211 417 -319 580 -196
296 -375 495 -581 649 -117 88 -256 154 -346 166 -30 3 -62 8 -70 10 -8 2 -40
-2 -70 -9z m220 -261 c200 -38 587 -499 803 -955 103 -217 130 -328 108 -442
-11 -58 -102 -261 -122 -274 -5 -3 -9 10 -9 29 0 91 -56 343 -91 409 -5 10 -9
25 -9 33 0 37 -183 417 -251 522 -37 57 -37 54 33 -152 30 -88 61 -180 68
-205 7 -25 18 -63 25 -85 53 -168 97 -390 111 -563 l7 -83 -115 -112 c-64 -62
-131 -132 -151 -157 l-36 -45 -46 45 c-144 140 -331 467 -412 720 -27 83 -73
272 -73 299 0 14 -5 33 -10 41 -7 11 -9 4 -5 -25 2 -22 9 -80 15 -130 42 -347
185 -700 403 -994 26 -35 47 -68 47 -74 0 -5 -19 -43 -42 -84 -33 -58 -53 -81
-88 -102 -41 -24 -54 -26 -155 -26 -102 0 -114 3 -170 30 -77 39 -146 105
-184 179 -36 68 -40 134 -16 281 20 124 18 256 -6 410 -47 293 -63 497 -56
715 7 207 18 280 77 509 24 96 118 234 181 266 34 18 98 34 119 30 8 -2 31 -7
50 -10z m4258 3 c60 -15 145 -98 185 -181 41 -84 60 -149 96 -317 5 -25 15
-122 22 -216 11 -147 10 -197 -4 -375 -9 -112 -23 -242 -31 -289 -8 -47 -23
-146 -32 -221 -17 -131 -17 -142 1 -270 31 -227 31 -260 0 -321 -35 -70 -123
-159 -194 -194 -50 -26 -66 -29 -151 -29 -112 0 -145 13 -176 72 -42 79 -76
138 -87 151 -7 9 -2 24 20 55 86 121 253 431 253 470 0 7 4 17 9 23 8 8 35 92
76 234 25 86 49 221 59 340 7 73 -4 43 -38 -100 -28 -117 -66 -240 -92 -297
-8 -17 -14 -34 -14 -38 0 -11 -91 -195 -123 -250 -75 -126 -209 -305 -228
-305 -6 0 -65 54 -130 120 -66 66 -138 132 -160 147 -22 14 -42 37 -46 51 -6
25 9 184 27 277 8 43 25 117 60 265 17 73 53 191 110 364 33 98 60 184 60 190
0 35 -171 -291 -230 -439 -17 -44 -35 -89 -40 -100 -5 -11 -16 -45 -25 -75
-10 -30 -21 -65 -26 -78 -5 -13 -9 -34 -9 -48 0 -14 -5 -34 -10 -45 -6 -10
-14 -67 -18 -126 -4 -60 -11 -108 -16 -108 -12 0 -74 116 -98 185 -61 170 -43
273 100 580 69 147 209 368 327 515 184 230 312 341 440 381 51 16 75 17 133
2z m-2108 -1526 c366 -185 824 -514 922 -664 48 -74 57 -116 68 -332 5 -103
11 -190 14 -193 3 -3 19 0 37 6 67 23 215 6 334 -39 71 -27 180 -95 215 -135
l25 -29 -30 21 c-103 71 -270 123 -394 123 -114 0 -159 -23 -276 -140 -97 -97
-125 -116 -125 -84 0 8 20 75 44 147 24 73 52 159 61 192 9 33 22 73 27 88 18
46 3 41 -48 -17 -41 -48 -204 -281 -204 -292 0 -2 -18 -31 -40 -66 -59 -91
-73 -146 -55 -228 18 -86 29 -124 55 -190 l22 -55 -24 20 c-12 11 -90 85 -171
165 -81 80 -152 147 -157 148 -19 7 -10 -60 12 -91 12 -18 99 -111 193 -207
157 -161 226 -240 210 -240 -3 0 -31 11 -61 25 -95 44 -204 77 -362 112 -110
24 -513 24 -624 0 -170 -37 -281 -74 -402 -133 -16 -8 -31 -12 -34 -9 -5 4 79
103 170 200 25 28 55 61 65 75 50 69 48 40 53 620 5 495 7 549 23 585 10 23
77 99 162 185 140 141 195 217 195 267 0 11 4 33 9 49 5 16 12 55 16 87 4 31
9 57 13 57 4 0 32 -13 62 -28z m-1285 -1397 c74 -23 185 -81 230 -121 22 -20
33 -34 25 -31 -8 3 -44 18 -80 33 -284 118 -558 34 -686 -210 -16 -30 -30 -53
-32 -51 -7 7 29 104 56 153 14 26 53 74 87 107 118 116 265 161 400 120z
m2716 0 c159 -55 265 -163 329 -333 19 -50 5 -48 -21 3 -88 167 -251 266 -437
265 -92 -1 -204 -30 -280 -72 -55 -30 -59 -20 -10 25 51 46 128 90 198 111 61
19 168 19 221 1z m92 -288 c41 -24 85 -60 104 -85 31 -41 33 -49 33 -120 0
-64 -5 -87 -29 -139 -39 -81 -105 -147 -189 -186 -55 -26 -82 -32 -152 -35
-106 -5 -177 14 -260 69 -72 49 -111 94 -150 174 -50 103 -50 102 25 181 37
38 64 60 60 49 -13 -42 -6 -183 11 -217 57 -111 124 -165 235 -188 104 -22
200 9 281 92 57 58 88 135 88 217 0 51 -21 131 -35 131 -2 0 -13 -20 -24 -45
-33 -75 -109 -105 -171 -69 -66 39 -79 121 -30 178 52 58 98 57 203 -7z
m-2635 -4 c33 -37 40 -70 22 -104 -9 -16 -5 -24 25 -50 19 -17 38 -42 41 -55
3 -13 11 -24 16 -24 7 0 8 25 4 73 l-7 72 60 -60 c34 -33 61 -67 61 -77 0 -31
-46 -121 -88 -174 -49 -63 -144 -127 -216 -148 -117 -34 -266 -13 -358 50 -50
35 -125 128 -133 166 -4 15 -11 30 -16 33 -5 4 -9 41 -9 84 0 86 18 125 82
179 62 53 85 55 49 3 -75 -104 -65 -248 24 -356 71 -87 187 -129 292 -106 104
23 183 83 228 172 33 65 32 67 -13 19 -30 -31 -46 -40 -72 -40 -26 0 -42 9
-72 40 -41 43 -46 70 -23 110 18 31 18 40 2 40 -7 0 -25 13 -40 28 -37 39 -38
103 -1 137 48 45 94 41 142 -12z m2818 -305 c-13 -117 -52 -202 -131 -282
-116 -120 -269 -128 -442 -23 -52 32 -105 77 -91 77 3 0 27 -10 53 -21 64 -28
171 -41 251 -30 130 19 242 97 303 210 17 32 31 64 31 69 0 17 19 62 26 62 4
0 3 -28 0 -62z m-3436 -9 c23 -82 119 -191 206 -233 122 -60 287 -54 439 16
39 18 -71 -73 -119 -98 -167 -88 -310 -70 -427 53 -57 59 -90 119 -111 198
-19 72 -23 138 -8 115 5 -8 14 -31 20 -51z m1869 -40 c98 -13 220 -36 271 -51
308 -95 537 -253 720 -499 96 -129 216 -389 260 -564 4 -16 15 -57 24 -90 10
-33 21 -80 26 -105 5 -25 16 -83 25 -130 9 -47 19 -135 22 -197 5 -104 3 -117
-21 -181 -48 -124 -156 -232 -280 -278 -40 -15 -76 -19 -166 -18 -107 1 -120
3 -184 32 -93 44 -124 69 -326 267 -96 94 -218 204 -271 243 -53 39 -110 87
-127 106 -63 72 -90 209 -56 282 9 18 47 68 84 110 38 42 82 102 99 134 l31
58 74 11 c101 15 150 36 190 82 121 141 31 402 -171 497 l-58 27 -330 0 -330
0 -66 -32 c-120 -59 -205 -179 -216 -303 -8 -87 11 -145 67 -201 40 -40 56
-49 118 -63 39 -9 84 -16 99 -16 25 0 33 -8 57 -54 16 -30 61 -92 100 -138 39
-46 78 -96 86 -112 24 -47 18 -150 -13 -216 -32 -69 -47 -86 -122 -141 -33
-24 -62 -46 -65 -49 -3 -3 -43 -37 -90 -77 -47 -39 -141 -129 -210 -198 -184
-186 -240 -222 -389 -250 -233 -45 -465 106 -527 342 -23 87 -21 114 27 358
12 61 25 128 29 150 33 169 148 480 227 610 129 213 324 394 541 504 250 126
576 184 841 150z m1634 -166 c-8 -78 -50 -204 -87 -263 -35 -55 -35 -56 -36
-170 -1 -144 -27 -304 -64 -390 -15 -35 -15 -34 -10 35 3 39 10 83 15 99 21
67 1 342 -28 389 -3 5 20 34 50 65 54 55 121 166 146 245 7 20 14 37 16 37 1
0 0 -21 -2 -47z m-3568 -30 c29 -74 83 -159 137 -213 38 -37 49 -54 43 -67
-35 -88 -50 -308 -26 -400 5 -21 12 -65 15 -98 l6 -60 -16 35 c-20 42 -29 80
-56 230 -16 95 -18 127 -10 185 8 62 7 75 -11 110 -56 112 -66 134 -82 180
-17 51 -32 145 -23 145 3 0 13 -21 23 -47z m1582 -344 c73 -35 110 -113 96
-203 -6 -38 -6 -38 -19 -15 -7 13 -13 31 -14 40 0 22 -48 69 -86 85 -64 27
-149 -29 -175 -116 -16 -54 -29 -41 -29 31 0 94 38 155 116 183 53 20 61 19
111 -5z m513 -4 c56 -29 90 -95 90 -177 0 -74 -13 -90 -29 -36 -19 62 -48 98
-96 119 -35 16 -48 17 -76 8 -46 -16 -76 -45 -90 -88 -20 -62 -29 -58 -29 13
0 54 5 74 22 99 54 77 132 100 208 62z"/>
<path d="M1395 5363 c25 -64 65 -201 79 -273 10 -47 22 -101 27 -121 5 -20 9
-159 9 -309 l0 -272 27 -49 c47 -87 53 -71 53 139 0 180 -9 294 -31 412 -11
61 -56 233 -69 265 -4 11 -16 43 -25 70 -24 67 -64 155 -71 155 -4 0 -3 -8 1
-17z"/>
<path d="M4966 5393 c-6 -14 -5 -15 5 -6 7 7 10 15 7 18 -3 3 -9 -2 -12 -12z"/>
<path d="M4922 5298 c-106 -249 -152 -492 -152 -810 0 -107 3 -198 7 -201 7
-8 47 48 65 90 8 19 12 122 13 318 1 297 1 293 46 470 6 22 22 75 35 119 14
43 23 80 21 82 -2 3 -18 -28 -35 -68z"/>
<path d="M3790 2103 c0 -4 24 -21 53 -37 115 -64 207 -135 310 -236 59 -59
107 -105 107 -104 0 5 -36 68 -63 111 -60 94 -189 184 -367 257 -14 5 -28 12
-32 14 -5 2 -8 0 -8 -5z"/>
<path d="M2497 2027 c-107 -57 -178 -119 -233 -205 -19 -29 -34 -55 -34 -57 0
-3 -11 -24 -25 -48 l-26 -42 33 40 c108 130 223 234 351 314 37 24 67 45 67
47 0 14 -48 -4 -133 -49z"/>
<path d="M3024 603 c-99 -71 -255 -204 -249 -213 4 -6 41 -18 120 -39 22 -5
107 -18 189 -27 138 -15 158 -15 297 0 81 9 161 21 176 25 15 5 54 15 86 22
32 7 60 16 62 20 6 9 -81 84 -200 173 -124 93 -137 99 -183 85 -36 -10 -139
-8 -192 5 -20 5 -42 -6 -106 -51z"/>
<path d="M2630 223 c-25 -19 -46 -38 -48 -42 -7 -19 234 -90 413 -122 91 -17
399 -16 490 0 144 27 290 67 371 102 l46 19 -49 39 -48 39 -85 -28 c-170 -56
-266 -70 -481 -70 -109 0 -221 5 -251 11 -177 36 -257 57 -297 78 -11 6 -29
-1 -61 -26z"/>
</g>
</svg>
