<?xml version="1.0" encoding="UTF-8" standalone="no"?>
<svg
   version="1.0"
   width="698.25171pt"
   height="704.32642pt"
   viewBox="0 0 698.25171 704.32642"
   preserveAspectRatio="xMidYMid"
   id="svg8"
   xmlns="http://www.w3.org/2000/svg"
   xmlns:svg="http://www.w3.org/2000/svg">
  <defs
     id="defs8" />
  <g
     id="layer1"
     transform="translate(35.172879,-13.448025)">
    <path
       style="fill:#ffffff;stroke-width:0.672304"
       id="path12"
       d="m 119.50585,196.81807 c 14.11485,-9.5963 18.24864,-13.32117 34.54665,-20.25843 5.96867,-2.54058 12.22314,-4.2901 18.41296,-6.16813 4.63441,-1.40614 9.59144,-1.73401 14.04318,-3.67941 4.84647,-2.11786 8.93931,-5.77664 13.56158,-8.38369 4.60702,-2.59845 9.40323,-4.81383 14.10484,-7.22075 25.32806,-12.84324 3.17428,-2.07452 29.014,-13.329 5.76583,-2.51129 11.28391,-5.66531 17.182,-7.8163 11.15574,-4.06842 20.15058,-4.93619 31.35218,-8.01579 4.18322,-1.15006 8.26562,-2.66763 12.39844,-4.00144 3.68057,-0.90895 7.31447,-2.05615 11.04169,-2.72682 1.61616,-0.29082 10.15551,-1.15882 12.91314,-0.55696 0.80135,0.1749 2.69748,1.91319 2.09986,1.32931 -90.28689,-88.211767 -80.07048,-128.489931 -90.4167,-84.796698 -6.16434,13.253944 -29.69573,38.855931 -64.16095,75.600998 -42.83667,49.73614 2.08599,-1.4317 -45.00138,49.03717 -9.38484,10.05881 -18.01012,20.88671 -27.64157,30.68844 -8.742649,8.89725 -47.090056,43.69805 -57.552705,51.89847 -7.30998,5.72942 -15.346248,10.37347 -23.01937,15.56019 -15.0490719,11.68885 -29.6659459,23.99883 -43.652069,37.04942 -3.362482,3.13754 -8.459778,10.07408 -13.904504,10.53321 32.7662583,26.15723 64.448632,53.86302 98.298777,78.47168 1.507499,1.09592 2.161447,-3.10327 3.157016,-4.71455 2.24754,-3.63755 4.127439,-7.52862 6.569325,-11.02711 4.908696,-7.03268 9.563458,-14.36572 15.452996,-20.5242 12.455964,-13.02479 36.858684,-30.0709 50.786504,-40.3849 33.55064,-22.96113 27.17485,-20.42096 63.06626,-37.8951 9.67943,-4.71255 19.77941,-8.45351 29.41416,-13.26472 31.82347,-15.89132 29.53135,-18.12664 62.8423,-33.28732 10.14492,-4.61722 20.71706,-8.1364 31.07559,-12.2046 9.032,-3.91911 18.06402,-7.83824 27.09603,-11.75736 9.03123,-4.42013 17.9078,-9.20211 27.0937,-13.26036 9.14756,-4.04133 18.43231,-7.77584 27.86669,-11.02076 8.02326,-2.75955 16.44577,-4.14383 24.44699,-6.97224 28.96732,-12.38005 14.82445,-7.14366 42.3161,-16.03637 8.85093,-3.12916 18.04982,-7.42462 27.6777,-7.52643 2.31883,-0.0245 4.50162,1.1645 6.75242,1.74675 -31.44461,-25.48166 -61.74597,-52.578499 -94.33386,-76.444979 -1.67366,-1.225743 -0.90323,4.174756 -1.6142,6.175233 -1.78996,5.036365 -3.91791,9.934825 -5.87686,14.902237 -8.95206,14.055729 -25.78831,41.084499 -34.77421,51.563919 -8.96862,10.45928 -20.12546,18.64907 -29.64691,28.56203 -45.02932,46.88096 -29.14812,36.333 -79.501,86.15414 -15.55551,15.39125 -32.16301,29.58191 -48.24452,44.37287 -65.62377,51.20558 -22.30424,14.5676 -81.65187,72.05494 -13.7226,13.29246 -48.159294,44.34735 -62.471134,59.33029 -40.93968,42.85933 -8.71553,16.07074 -45.555112,44.31297 -3.587955,1.75121 -13.785951,2.58167 -10.76387,5.25359 30.661783,27.1093 64.200534,50.7157 98.597226,72.40333 2.3963,1.51092 2.81595,-5.0722 4.54219,-7.37232 2.98501,-3.97739 6.3001,-7.67451 9.55624,-11.41314 9.37521,-10.76444 25.28497,-28.01386 34.29243,-37.86799 8.66354,-9.59249 62.4842,-69.29581 65.47192,-72.00433 13.81941,-12.52803 29.80965,-22.18171 44.73801,-33.23799 14.88508,-11.02421 29.39077,-22.63449 44.7022,-33.00347 25.57238,-17.31775 59.6717,-35.96898 86.56154,-51.20828 7.19877,-3.19387 55.88083,-24.66868 65.83667,-29.50853 8.84863,-4.30158 17.32682,-9.40464 26.18912,-13.67556 9.96879,-4.80417 27.53424,-12.92031 39.50522,-14.67002 2.70725,-0.39571 5.42539,0.70552 8.13809,1.05829 -34.30128,-22.73967 -67.20291,-47.96026 -102.90378,-68.21901 -2.45178,-1.39128 -3.32603,4.6798 -5.08786,6.9383 -3.30517,4.23694 -6.85558,8.26342 -10.10955,12.5433 -41.76762,54.93633 19.98955,-24.67508 -38.38016,56.78262 -9.7865,13.6575 -20.68285,26.40954 -31.02428,39.61431 -30.3553,29.44154 -49.17879,68.48376 -75.76857,101.02017 -13.02206,15.93435 -29.14255,28.84301 -42.77424,44.21219 -13.47191,15.18899 -24.74864,32.42008 -38.45904,47.37491 -19.31309,21.06604 -34.1386,31.42642 -55.33175,47.77267 -4.57799,3.20427 -8.6304,7.43861 -13.73396,9.61283 -1.80629,0.76951 -3.80874,-0.88536 -5.71311,-1.32804 35.59844,20.68054 69.36312,45.2525 106.79533,62.04162 3.87097,1.73619 4.46174,-7.46659 6.91763,-11.03903 19.97158,-29.05131 12.55335,-19.23318 39.67762,-44.60871 9.46718,-9.3268 18.66109,-18.96523 28.40157,-27.98039 15.68434,-14.51637 54.60607,-47.39073 70.59966,-60.44913 29.05963,-23.7265 48.48332,-39.23943 79.8032,-59.69189 13.16046,-8.59401 26.88291,-16.21345 40.32434,-24.32018 21.66632,-12.72908 55.72672,-33.28533 78.38273,-44.46781 11.4751,-5.66382 23.06236,-11.24778 35.15284,-15.28386 7.87247,-2.62798 16.14714,-4.16146 24.40215,-4.5968 3.62927,-0.1914 13.79467,4.51586 10.57784,2.7521 -35.94542,-19.70836 -72.6764,-37.81576 -109.01459,-56.72363 -10.7413,12.38962 -24.22609,21.78679 -35.04856,34.09671 -6.6365,7.54863 -12.51411,15.78727 -18.73673,23.71043 -35.21715,44.84118 -19.78592,24.75788 -59.86583,80.41369 -42.02557,53.00199 -58.29687,77.99157 -108.97393,123.44881 -26.17049,25.93409 -60.27448,41.25738 -87.56734,65.66439 -5.39325,4.82302 -39.2497,43.9633 -45.90814,51.60345 -4.43419,3.02917 -9.06846,5.76123 -13.30259,9.08748 -2.08862,1.64078 -4.06535,3.52681 -5.58256,5.74837 -0.93265,1.36565 -2.9983,3.94718 -1.58747,4.75026 36.58442,20.82454 72.72482,43.38989 111.9518,58.07115 4.98914,1.86727 7.37804,-7.94833 10.88058,-12.09936 7.82904,-9.27857 15.40435,-18.7869 23.10652,-28.18036 28.38024,-26.8047 49.04807,-47.72144 80.71476,-71.32645 14.32027,-10.6746 29.80689,-19.53378 44.68566,-29.34149 13.54624,-8.92934 27.31805,-17.50133 40.58926,-26.86954 82.45891,-58.20811 0.85868,-6.27707 88.79809,-60.10213 32.24823,-13.22027 -266.33868,209.66917 -233.54121,208.72884 6.47014,-0.18551 334.34968,-225.0312 328.57277,-228.07719 -32.45816,-17.11426 -66.06087,-31.84523 -99.8594,-45.8525 -1.2627,-0.52331 -1.80393,2.19442 -2.29016,3.51821 -3.52225,9.58985 -6.46094,19.40212 -9.69141,29.10318 h 120.56376 v 0 c -0.74414,8.28171 -1.83054,16.53768 -2.23239,24.84516 -0.0859,1.77655 2.78563,-4.33123 1.2805,-5.16651 -35.64054,-19.77906 -71.99872,-38.26993 -109.16654,-54.70586 -3.03136,-1.34049 -6.69148,0.6696 -9.65748,2.16079 -18.81527,9.45957 -33.28374,27.15104 -53.55274,33.93881 -5.46056,3.27265 -89.54137,53.5772 -94.58302,56.94987 -51.29322,34.31313 -24.08369,21.78576 -75.65051,59.46538 -25.35591,18.52743 -68.66996,44.64083 -95.82759,61.42668 -13.07264,6.10671 -25.92009,12.76799 -39.21791,18.32019 -6.30414,2.63215 -24.85572,1.8528 -19.48713,6.19076 30.17381,24.38119 66.49303,39.10345 99.73954,58.65519 -0.53936,-1.38875 -1.38015,-2.68853 -1.61811,-4.1663 -0.42567,-2.64364 -0.4686,-5.35634 -0.34641,-8.03401 0.24264,-5.31723 0.95902,-10.59939 1.43853,-15.89909 32.95655,-58.78296 -7.15525,10.72885 35.19633,-55.17146 22.11935,-34.41836 26.76745,-51.77268 55.92823,-85.16018 42.20559,-48.3231 76.57674,-72.45454 125.88457,-112.23452 16.75675,-13.12914 33.7211,-25.97474 50.27029,-39.38747 65.69953,-53.24799 1.65475,-4.60339 58.83011,-47.69899 15.53739,-11.71125 30.21694,-22.99625 48.68593,-29.25022 -33.33716,-21.38156 -66.03604,-43.88653 -100.0115,-64.14465 -1.33266,-0.7946 1.3002,3.4468 0.45191,4.78156 -3.09215,4.86551 -7.05999,9.22955 -11.56057,12.69798 -9.42404,7.26278 -19.82684,13.03586 -29.90951,19.26159 -25.48005,15.73315 -51.67022,30.19208 -77.02809,46.14712 -29.81194,20.34619 -48.71643,32.94679 -78.27111,54.40263 -50.44005,36.61806 -98.73685,76.53599 -151.33432,109.85621 -35.10194,26.13228 -14.92986,13.60871 -52.94765,32.29142 -3.76402,1.84972 -14.42756,2.98525 -11.20704,5.73382 31.18142,26.61181 66.87732,46.87752 100.31597,70.31629 -1.40922,-1.29064 -4.08314,-1.92123 -4.22763,-3.87193 -0.33446,-4.51483 1.97391,-8.81928 2.96088,-13.22892 9.40842,-24.95396 13.98804,-40.32143 30.07767,-64.05907 11.25176,-16.60015 25.38652,-30.86827 37.46323,-46.82478 12.22986,-16.15894 22.06232,-34.34047 35.42994,-49.4865 28.17807,-31.92686 64.23234,-55.62642 90.22661,-89.94882 12.11754,-12.00484 23.57965,-24.77386 36.35264,-36.01458 3.53162,-3.10795 47.72792,-36.75941 57.8455,-43.72425 5.02378,-3.45832 10.18838,-6.71607 15.52745,-9.61479 3.57866,-1.94296 14.23875,-2.15197 11.1636,-4.87649 -30.44851,-26.97659 -65.30473,-48.01356 -97.9571,-72.02034 -0.23327,1.68062 0.30137,3.70308 -0.69982,5.04189 -6.06837,8.11472 -23.48288,19.51202 -30.11695,23.67058 -8.39232,5.2607 -17.37229,9.45856 -25.73104,14.77716 -13.55134,8.62259 -40.97021,29.52022 -52.87139,38.40398 -54.06153,34.03076 -27.85207,16.40773 -81.13848,54.61446 -15.02503,10.77304 -30.44078,20.97708 -45.06199,32.33901 -14.21039,11.0427 -26.75573,24.37242 -41.36974,34.82586 -27.93399,19.98127 -59.65996,33.76915 -86.575534,55.48649 -19.672125,13.66117 -24.331258,17.65338 -43.753647,28.66531 -4.429275,2.51126 -8.953532,4.85289 -13.572923,6.95846 -2.697221,1.22943 -10.588702,1.04876 -8.339114,3.02926 97.491168,85.82999 94.136068,112.82124 94.749398,61.22228 16.95133,-37.10851 2.09339,-9.6574 33.45427,-49.90414 23.25732,-29.84709 24.44673,-37.18465 51.02288,-66.8216 11.91922,-13.29196 25.09773,-25.29047 37.64659,-37.9357 11.85764,-13.41205 23.71527,-26.82408 35.57289,-40.23614 16.0833,-14.55374 31.62897,-29.78074 48.2499,-43.66119 70.39899,-58.79159 30.87199,-20.42535 95.15624,-72.25038 10.81387,-8.71798 20.24782,-19.22208 31.19995,-27.75012 84.69175,-65.94646 -1.24044,7.73695 52.03901,-38.73074 4.26373,-3.40303 8.61633,-6.68816 12.79122,-10.2091 1.69336,-1.4281 6.40835,-3.09588 4.79795,-4.62493 C 398.52617,39.699411 449.26042,43.468907 403.14218,72.291781 c -4.62275,2.889121 -9.37747,5.54189 -14.06621,8.312835 -29.8842,19.28161 -1.52125,2.340734 -40.69383,20.572764 -6.95449,3.2368 -13.45116,7.47594 -20.38721,10.75548 -27.19215,12.85718 -56.08743,21.96171 -81.60392,38.53802 -9.0488,5.07942 -17.86034,10.64864 -27.14636,15.23832 -6.99045,3.45509 -59.51793,25.94407 -67.58146,30.03106 -3.8469,1.94979 -54.836501,32.1281 -56.394061,33.02183 -11.119735,6.38055 -22.364375,12.52119 -33.546569,18.78178 -9.789583,6.00095 -19.591225,11.98051 -29.36875,18.00282 -8.906129,5.48558 -17.585317,11.38706 -26.682081,16.52077 -7.9430809,4.48262 -16.262057,8.19871 -24.39119,12.30215 -3.862297,1.94961 -7.659208,4.04626 -11.583099,5.85703 -1.138575,0.52542 -4.520591,0.29496 -3.572421,1.13679 31.169071,27.67297 63.676304,53.66167 95.514457,80.4925 -0.578409,-0.50163 -1.583814,-0.73616 -1.735227,-1.5049 -0.963339,-4.89084 2.548586,-10.28141 4.58586,-13.90339 8.711217,-15.48726 20.538846,-28.54131 32.236306,-41.58004 5.401775,-7.09581 10.304515,-14.6384 16.205325,-21.28738 8.05171,-9.0726 16.97944,-17.25459 25.56433,-25.77833 43.45074,-43.14124 12.83392,-13.46074 60.04015,-54.03166 54.99328,-47.26342 -3.34566,0.20806 50.51475,-42.91086 6.33833,-5.58087 12.69898,-11.13429 19.01502,-16.74265 5.63916,-5.00734 10.96402,-10.41653 16.85021,-15.10416 5.37799,-4.28288 11.24409,-7.85375 16.88049,-11.75811 8.75248,-6.06288 17.43634,-12.25438 26.37898,-18.00731 32.05273,-31.482718 3.32282,-1.9552 -87.73419,-91.09343 -0.11874,-0.11624 -2.99547,2.379468 -3.59508,2.773449 z" />
  </g>
  <g
     transform="matrix(0.1,0,0,-0.1,38.107611,631.05688)"
     fill="#000000"
     stroke="none"
     id="g8">
    <path
       d="M 890,6286 C 764,6258 685,6184 602,6015 462,5729 416,5217 490,4770 c 5,-30 16,-98 24,-150 8,-52 19,-125 25,-161 14,-88 14,-294 -1,-344 -6,-22 -12,-88 -12,-146 -1,-96 1,-110 27,-161 52,-103 180,-237 357,-375 66,-52 241,-164 273,-176 21,-8 21,-23 1,-101 -11,-39 -17,-105 -18,-186 l -1,-125 63,-185 c 60,-176 63,-187 53,-235 -22,-106 -26,-155 -25,-310 1,-224 12,-282 99,-490 6,-16 21,-55 33,-85 40,-105 173,-445 181,-465 20,-44 20,-61 9,-180 -24,-261 31,-418 204,-581 129,-121 317,-185 479,-163 171,24 246,69 448,267 133,131 320,292 411,355 77,53 101,67 118,67 22,0 158,-93 270,-183 43,-34 154,-136 248,-227 229,-221 310,-267 486,-278 176,-10 325,47 461,177 113,108 164,206 193,368 13,74 13,96 -1,203 l -16,119 76,193 c 42,106 86,220 99,253 23,57 88,232 106,285 23,65 40,154 50,250 9,99 2,232 -26,441 -5,37 1,66 36,165 45,128 51,145 76,244 14,56 14,80 5,170 -7,58 -16,119 -21,135 -4,17 -11,48 -14,70 l -6,41 82,58 c 224,162 426,367 473,479 27,66 35,122 25,174 -6,26 -17,108 -24,181 -11,112 -11,155 0,278 8,80 16,149 18,153 2,3 11,51 20,106 9,55 22,134 29,175 19,118 16,569 -6,702 -59,366 -177,606 -339,689 -59,30 -172,37 -258,15 -151,-39 -326,-153 -504,-331 -87,-86 -222,-243 -276,-321 -170,-245 -270,-417 -414,-709 -105,-213 -146,-302 -167,-358 -20,-58 -28,-61 -111,-44 -153,32 -413,57 -583,57 -102,-1 -389,-23 -505,-40 -56,-8 -144,-26 -227,-47 -17,-4 -24,2 -38,34 -34,77 -66,143 -179,373 -151,307 -211,417 -319,580 -196,296 -375,495 -581,649 -117,88 -256,154 -346,166 -30,3 -62,8 -70,10 -8,2 -40,-2 -70,-9 z m 220,-261 c 200,-38 587,-499 803,-955 103,-217 130,-328 108,-442 -11,-58 -102,-261 -122,-274 -5,-3 -9,10 -9,29 0,91 -56,343 -91,409 -5,10 -9,25 -9,33 0,37 -183,417 -251,522 -37,57 -37,54 33,-152 30,-88 61,-180 68,-205 7,-25 18,-63 25,-85 53,-168 97,-390 111,-563 l 7,-83 -115,-112 c -64,-62 -131,-132 -151,-157 l -36,-45 -46,45 c -144,140 -331,467 -412,720 -27,83 -73,272 -73,299 0,14 -5,33 -10,41 -7,11 -9,4 -5,-25 2,-22 9,-80 15,-130 42,-347 185,-700 403,-994 26,-35 47,-68 47,-74 0,-5 -19,-43 -42,-84 -33,-58 -53,-81 -88,-102 -41,-24 -54,-26 -155,-26 -102,0 -114,3 -170,30 -77,39 -146,105 -184,179 -36,68 -40,134 -16,281 20,124 18,256 -6,410 -47,293 -63,497 -56,715 7,207 18,280 77,509 24,96 118,234 181,266 34,18 98,34 119,30 8,-2 31,-7 50,-10 z m 4258,3 c 60,-15 145,-98 185,-181 41,-84 60,-149 96,-317 5,-25 15,-122 22,-216 11,-147 10,-197 -4,-375 -9,-112 -23,-242 -31,-289 -8,-47 -23,-146 -32,-221 -17,-131 -17,-142 1,-270 31,-227 31,-260 0,-321 -35,-70 -123,-159 -194,-194 -50,-26 -66,-29 -151,-29 -112,0 -145,13 -176,72 -42,79 -76,138 -87,151 -7,9 -2,24 20,55 86,121 253,431 253,470 0,7 4,17 9,23 8,8 35,92 76,234 25,86 49,221 59,340 7,73 -4,43 -38,-100 -28,-117 -66,-240 -92,-297 -8,-17 -14,-34 -14,-38 0,-11 -91,-195 -123,-250 -75,-126 -209,-305 -228,-305 -6,0 -65,54 -130,120 -66,66 -138,132 -160,147 -22,14 -42,37 -46,51 -6,25 9,184 27,277 8,43 25,117 60,265 17,73 53,191 110,364 33,98 60,184 60,190 0,35 -171,-291 -230,-439 -17,-44 -35,-89 -40,-100 -5,-11 -16,-45 -25,-75 -10,-30 -21,-65 -26,-78 -5,-13 -9,-34 -9,-48 0,-14 -5,-34 -10,-45 -6,-10 -14,-67 -18,-126 -4,-60 -11,-108 -16,-108 -12,0 -74,116 -98,185 -61,170 -43,273 100,580 69,147 209,368 327,515 184,230 312,341 440,381 51,16 75,17 133,2 z M 3260,4502 c 366,-185 824,-514 922,-664 48,-74 57,-116 68,-332 5,-103 11,-190 14,-193 3,-3 19,0 37,6 67,23 215,6 334,-39 71,-27 180,-95 215,-135 l 25,-29 -30,21 c -103,71 -270,123 -394,123 -114,0 -159,-23 -276,-140 -97,-97 -125,-116 -125,-84 0,8 20,75 44,147 24,73 52,159 61,192 9,33 22,73 27,88 18,46 3,41 -48,-17 -41,-48 -204,-281 -204,-292 0,-2 -18,-31 -40,-66 -59,-91 -73,-146 -55,-228 18,-86 29,-124 55,-190 l 22,-55 -24,20 c -12,11 -90,85 -171,165 -81,80 -152,147 -157,148 -19,7 -10,-60 12,-91 12,-18 99,-111 193,-207 157,-161 226,-240 210,-240 -3,0 -31,11 -61,25 -95,44 -204,77 -362,112 -110,24 -513,24 -624,0 -170,-37 -281,-74 -402,-133 -16,-8 -31,-12 -34,-9 -5,4 79,103 170,200 25,28 55,61 65,75 50,69 48,40 53,620 5,495 7,549 23,585 10,23 77,99 162,185 140,141 195,217 195,267 0,11 4,33 9,49 5,16 12,55 16,87 4,31 9,57 13,57 4,0 32,-13 62,-28 z M 1975,3105 c 74,-23 185,-81 230,-121 22,-20 33,-34 25,-31 -8,3 -44,18 -80,33 -284,118 -558,34 -686,-210 -16,-30 -30,-53 -32,-51 -7,7 29,104 56,153 14,26 53,74 87,107 118,116 265,161 400,120 z m 2716,0 c 159,-55 265,-163 329,-333 19,-50 5,-48 -21,3 -88,167 -251,266 -437,265 -92,-1 -204,-30 -280,-72 -55,-30 -59,-20 -10,25 51,46 128,90 198,111 61,19 168,19 221,1 z m 92,-288 c 41,-24 85,-60 104,-85 31,-41 33,-49 33,-120 0,-64 -5,-87 -29,-139 -39,-81 -105,-147 -189,-186 -55,-26 -82,-32 -152,-35 -106,-5 -177,14 -260,69 -72,49 -111,94 -150,174 -50,103 -50,102 25,181 37,38 64,60 60,49 -13,-42 -6,-183 11,-217 57,-111 124,-165 235,-188 104,-22 200,9 281,92 57,58 88,135 88,217 0,51 -21,131 -35,131 -2,0 -13,-20 -24,-45 -33,-75 -109,-105 -171,-69 -66,39 -79,121 -30,178 52,58 98,57 203,-7 z m -2635,-4 c 33,-37 40,-70 22,-104 -9,-16 -5,-24 25,-50 19,-17 38,-42 41,-55 3,-13 11,-24 16,-24 7,0 8,25 4,73 l -7,72 60,-60 c 34,-33 61,-67 61,-77 0,-31 -46,-121 -88,-174 -49,-63 -144,-127 -216,-148 -117,-34 -266,-13 -358,50 -50,35 -125,128 -133,166 -4,15 -11,30 -16,33 -5,4 -9,41 -9,84 0,86 18,125 82,179 62,53 85,55 49,3 -75,-104 -65,-248 24,-356 71,-87 187,-129 292,-106 104,23 183,83 228,172 33,65 32,67 -13,19 -30,-31 -46,-40 -72,-40 -26,0 -42,9 -72,40 -41,43 -46,70 -23,110 18,31 18,40 2,40 -7,0 -25,13 -40,28 -37,39 -38,103 -1,137 48,45 94,41 142,-12 z m 2818,-305 c -13,-117 -52,-202 -131,-282 -116,-120 -269,-128 -442,-23 -52,32 -105,77 -91,77 3,0 27,-10 53,-21 64,-28 171,-41 251,-30 130,19 242,97 303,210 17,32 31,64 31,69 0,17 19,62 26,62 4,0 3,-28 0,-62 z m -3436,-9 c 23,-82 119,-191 206,-233 122,-60 287,-54 439,16 39,18 -71,-73 -119,-98 -167,-88 -310,-70 -427,53 -57,59 -90,119 -111,198 -19,72 -23,138 -8,115 5,-8 14,-31 20,-51 z m 1869,-40 c 98,-13 220,-36 271,-51 308,-95 537,-253 720,-499 96,-129 216,-389 260,-564 4,-16 15,-57 24,-90 10,-33 21,-80 26,-105 5,-25 16,-83 25,-130 9,-47 19,-135 22,-197 5,-104 3,-117 -21,-181 -48,-124 -156,-232 -280,-278 -40,-15 -76,-19 -166,-18 -107,1 -120,3 -184,32 -93,44 -124,69 -326,267 -96,94 -218,204 -271,243 -53,39 -110,87 -127,106 -63,72 -90,209 -56,282 9,18 47,68 84,110 38,42 82,102 99,134 l 31,58 74,11 c 101,15 150,36 190,82 121,141 31,402 -171,497 l -58,27 h -330 -330 l -66,-32 c -120,-59 -205,-179 -216,-303 -8,-87 11,-145 67,-201 40,-40 56,-49 118,-63 39,-9 84,-16 99,-16 25,0 33,-8 57,-54 16,-30 61,-92 100,-138 39,-46 78,-96 86,-112 24,-47 18,-150 -13,-216 -32,-69 -47,-86 -122,-141 -33,-24 -62,-46 -65,-49 -3,-3 -43,-37 -90,-77 -47,-39 -141,-129 -210,-198 -184,-186 -240,-222 -389,-250 -233,-45 -465,106 -527,342 -23,87 -21,114 27,358 12,61 25,128 29,150 33,169 148,480 227,610 129,213 324,394 541,504 250,126 576,184 841,150 z m 1634,-166 c -8,-78 -50,-204 -87,-263 -35,-55 -35,-56 -36,-170 -1,-144 -27,-304 -64,-390 -15,-35 -15,-34 -10,35 3,39 10,83 15,99 21,67 1,342 -28,389 -3,5 20,34 50,65 54,55 121,166 146,245 7,20 14,37 16,37 1,0 0,-21 -2,-47 z m -3568,-30 c 29,-74 83,-159 137,-213 38,-37 49,-54 43,-67 -35,-88 -50,-308 -26,-400 5,-21 12,-65 15,-98 l 6,-60 -16,35 c -20,42 -29,80 -56,230 -16,95 -18,127 -10,185 8,62 7,75 -11,110 -56,112 -66,134 -82,180 -17,51 -32,145 -23,145 3,0 13,-21 23,-47 z m 1582,-344 c 73,-35 110,-113 96,-203 -6,-38 -6,-38 -19,-15 -7,13 -13,31 -14,40 0,22 -48,69 -86,85 -64,27 -149,-29 -175,-116 -16,-54 -29,-41 -29,31 0,94 38,155 116,183 53,20 61,19 111,-5 z m 513,-4 c 56,-29 90,-95 90,-177 0,-74 -13,-90 -29,-36 -19,62 -48,98 -96,119 -35,16 -48,17 -76,8 -46,-16 -76,-45 -90,-88 -20,-62 -29,-58 -29,13 0,54 5,74 22,99 54,77 132,100 208,62 z"
       id="path1" />
    <path
       d="m 1395,5363 c 25,-64 65,-201 79,-273 10,-47 22,-101 27,-121 5,-20 9,-159 9,-309 v -272 l 27,-49 c 47,-87 53,-71 53,139 0,180 -9,294 -31,412 -11,61 -56,233 -69,265 -4,11 -16,43 -25,70 -24,67 -64,155 -71,155 -4,0 -3,-8 1,-17 z"
       id="path2" />
    <path
       d="m 4966,5393 c -6,-14 -5,-15 5,-6 7,7 10,15 7,18 -3,3 -9,-2 -12,-12 z"
       id="path3" />
    <path
       d="m 4922,5298 c -106,-249 -152,-492 -152,-810 0,-107 3,-198 7,-201 7,-8 47,48 65,90 8,19 12,122 13,318 1,297 1,293 46,470 6,22 22,75 35,119 14,43 23,80 21,82 -2,3 -18,-28 -35,-68 z"
       id="path4" />
    <path
       d="m 3790,2103 c 0,-4 24,-21 53,-37 115,-64 207,-135 310,-236 59,-59 107,-105 107,-104 0,5 -36,68 -63,111 -60,94 -189,184 -367,257 -14,5 -28,12 -32,14 -5,2 -8,0 -8,-5 z"
       id="path5" />
    <path
       d="m 2497,2027 c -107,-57 -178,-119 -233,-205 -19,-29 -34,-55 -34,-57 0,-3 -11,-24 -25,-48 l -26,-42 33,40 c 108,130 223,234 351,314 37,24 67,45 67,47 0,14 -48,-4 -133,-49 z"
       id="path6" />
    <path
       d="m 3024,603 c -99,-71 -255,-204 -249,-213 4,-6 41,-18 120,-39 22,-5 107,-18 189,-27 138,-15 158,-15 297,0 81,9 161,21 176,25 15,5 54,15 86,22 32,7 60,16 62,20 6,9 -81,84 -200,173 -124,93 -137,99 -183,85 -36,-10 -139,-8 -192,5 -20,5 -42,-6 -106,-51 z"
       id="path7" />
    <path
       d="m 2630,223 c -25,-19 -46,-38 -48,-42 -7,-19 234,-90 413,-122 91,-17 399,-16 490,0 144,27 290,67 371,102 l 46,19 -49,39 -48,39 -85,-28 c -170,-56 -266,-70 -481,-70 -109,0 -221,5 -251,11 -177,36 -257,57 -297,78 -11,6 -29,-1 -61,-26 z"
       id="path8" />
  </g>
</svg>
